# xmcd
#
# Track frame offsets: 
#        150
#        18718
#        38723
#        51200
#        67850
#        83585
#        97323
#        120070
#        141623
#        166420
#
# Disc length: 2590 seconds
#
# Revision: 2
# Processed by: cddbd v1.5.1PL0 Copyright (c) Steve Scherf et al.
# Submitted via: ExactAudioCopy v0.90b4
#
DISCID=810a1c0a
DTITLE=Gigi Gryce - Nica's Tempo
DYEAR=1955
DGENRE=Jazz
TTITLE0=Speculation
TTITLE1=In a Meditating Mood
TTITLE2=Social Call
TTITLE3=Smoke Signal
TTITLE4=(You'll Always Be) the One I Love
TTITLE5=Kerry Dance
TTITLE6=Shuffle Boil
TTITLE7=Brakes Sake
TTITLE8=Gallop's Gallop
TTITLE9=Nica's Tempo
EXTD=
EXTT0=
EXTT1=
EXTT2=
EXTT3=
EXTT4=
EXTT5=
EXTT6=
EXTT7=
EXTT8=
EXTT9=
PLAYORDER=
